<svg width="1024" height="1024" viewBox="0 0 1024 1024" fill="none" xmlns="http://www.w3.org/2000/svg">
<path d="M657 512C657 431.919 592.081 367 512 367C431.919 367 367 431.919 367 512C367 592.081 431.919 657 512 657V689C414.246 689 335 609.754 335 512C335 414.246 414.246 335 512 335C609.754 335 689 414.246 689 512C689 609.754 609.754 689 512 689V657C592.081 657 657 592.081 657 512Z" fill="white" style="fill:white;fill-opacity:1;"/>
<path d="M512 319C663.698 319 797.283 396.567 875.331 514.151C880.218 521.514 878.211 531.444 870.849 536.331C863.486 541.218 853.556 539.211 848.669 531.849C776.294 422.811 652.52 351 512 351C371.48 351 247.706 422.811 175.331 531.849C170.444 539.211 160.514 541.218 153.151 536.331C145.789 531.444 143.782 521.514 148.669 514.151C226.717 396.567 360.302 319 512 319Z" fill="white" style="fill:white;fill-opacity:1;"/>
</svg>
