<svg width="1024" height="1024" viewBox="0 0 1024 1024" fill="none" xmlns="http://www.w3.org/2000/svg">
<path d="M672 513C672 424.634 600.366 353 512 353C423.634 353 352 424.634 352 513C352 601.366 423.634 673 512 673V713C401.543 713 312 623.457 312 513C312 402.543 401.543 313 512 313C622.457 313 712 402.543 712 513C712 623.457 622.457 713 512 713V673C600.366 673 672 601.366 672 513Z" fill="white" style="fill:white;fill-opacity:1;"/>
<path d="M512 293C683.874 293 835.229 380.815 923.659 513.934C929.771 523.134 927.267 535.547 918.066 541.659C908.866 547.771 896.453 545.267 890.341 536.066C809.008 413.633 669.916 333 512 333C354.084 333 214.992 413.633 133.659 536.066C127.547 545.267 115.134 547.771 105.934 541.659C96.7331 535.547 94.229 523.134 100.341 513.934C188.771 380.815 340.126 293 512 293Z" fill="white" style="fill:white;fill-opacity:1;"/>
</svg>
